<?xml version="1.0" encoding="utf-8"?>
<!-- Generator: Adobe Illustrator 18.1.1, SVG Export Plug-In . SVG Version: 6.00 Build 0)  -->
<svg version="1.1" id="Ebene_1" xmlns="http://www.w3.org/2000/svg" xmlns:xlink="http://www.w3.org/1999/xlink" x="0px" y="0px"
	 viewBox="185 -186.3 512 512" enable-background="new 185 -186.3 512 512" xml:space="preserve">
<circle fill="#343434" cx="441.4" cy="70.6" r="244.9"/>
<path id="briefcase-5-icon" fill="#03CC85" d="M538.3,34v14.8c0,3-1.5,5.8-3.9,7.6c-32.4,22.9-152.4,22.4-185.9-1
	c-2.5-1.7-3.9-4.6-3.9-7.6V34L538.3,34L538.3,34z M554.8,17.5H328v33.8c0,50.4,226.8,51.9,226.8,1.1V17.5z M533.9,87.4V145H349V86.5
	c-6.5-2.6-12-5.6-16.5-8.8v83.9h217.9V78.8C545.9,82,540.4,84.9,533.9,87.4z M411.6-2.9c0-2.1,1.7-3.7,3.7-3.7h52.1
	c2.1,0,3.7,1.7,3.7,3.7v9.4h16.5v-16.8c0-6.5-5.2-11.7-11.7-11.7h-69.2c-6.5,0-11.7,5.2-11.7,11.7V6.5h16.5V-2.9z M453.9,100.6h-25
	v9.9c0,6.9,5.6,12.5,12.5,12.5c6.9,0,12.5-5.6,12.5-12.5L453.9,100.6L453.9,100.6z"/>
</svg>
