<?xml version="1.0" encoding="utf-8"?>
<!-- Generator: Adobe Illustrator 18.1.1, SVG Export Plug-In . SVG Version: 6.00 Build 0)  -->
<svg version="1.1" id="Ebene_1" xmlns="http://www.w3.org/2000/svg" xmlns:xlink="http://www.w3.org/1999/xlink" x="0px" y="0px"
	 viewBox="185 -186.3 512 512" enable-background="new 185 -186.3 512 512" xml:space="preserve">
<path id="dribbble-icon" fill="#03CC85" d="M441-136.3c-113.8,0-206,92.2-206,206c0,113.8,92.2,206,206,206s206-92.2,206-206
	C647-44,554.8-136.3,441-136.3z M610.7,60.1c-44.2-7.3-84.9-7.6-121.9-1.3c-4.2-9.7-8.5-19.3-13.2-28.8
	c39.6-17.2,71.5-40.5,95.2-70.1C594-12.7,608.5,22.1,610.7,60.1z M544.7-64.9c-20.7,26.7-49.2,47.8-85.6,63.2
	c-17.4-31.9-37.4-63.1-59.9-93.3c13.4-3.4,27.3-5.4,41.7-5.4C480.1-100.4,516-87.1,544.7-64.9z M364.2-81.9
	c22.9,29.9,43.1,60.7,60.7,92.4c-41.7,12.3-91.5,18.6-149.1,19C287.7-19.2,320.5-59.7,364.2-81.9z M270.8,69.7
	c0-1.5,0.2-2.9,0.2-4.4c66.1-0.1,123.1-7.7,170.8-22.7c4,8.1,7.8,16.3,11.5,24.6c-58,18.1-105.8,55.3-143.1,111.2
	C285.7,149,270.8,111,270.8,69.7z M336.6,203.8c33.8-53,77-87.5,130.4-103.5c15.9,41.5,27.6,84.3,35.1,128.1
	c-19,7.3-39.5,11.5-61.1,11.5C401.6,239.9,365.4,226.3,336.6,203.8z M535.5,211.2c-7.5-40.4-18.5-79.9-33-118.4
	c32.2-4.5,67.6-3.4,106.4,3.4C601.4,144,574.1,185.3,535.5,211.2z"/>
</svg>
