<?xml version="1.0" encoding="utf-8"?>
<!-- Generator: Adobe Illustrator 18.1.1, SVG Export Plug-In . SVG Version: 6.00 Build 0)  -->
<svg version="1.1" id="Ebene_1" xmlns="http://www.w3.org/2000/svg" xmlns:xlink="http://www.w3.org/1999/xlink" x="0px" y="0px"
	 viewBox="0 0 141.7 141.7" enable-background="new 0 0 141.7 141.7" xml:space="preserve">
<circle fill="#EEEEEE" cx="70.9" cy="70.9" r="42.5"/>
<path fill="#03CC85" d="M113.4,70.9c0,23.5-19,42.5-42.5,42.5v-85C94.3,28.3,113.4,47.4,113.4,70.9z"/>
<circle fill="#FFFFFF" cx="70.9" cy="70.9" r="35.4"/>
<g>
	<path fill="#03CC85" d="M72.6,80.9l-1.4-4.8h-7.3l-1.4,4.8h-4.6l7.1-20.1h5.2l7.1,20.1H72.6z M70.1,72.6c-1.3-4.3-2.1-6.7-2.3-7.3
		c-0.2-0.6-0.3-1-0.4-1.3c-0.3,1.2-1.2,4.1-2.6,8.7H70.1z"/>
	<path fill="#03CC85" d="M79.7,80.9v-20h4.2v20H79.7z"/>
</g>
</svg>
