<?xml version="1.0" encoding="utf-8"?>
<!-- Generator: Adobe Illustrator 18.1.1, SVG Export Plug-In . SVG Version: 6.00 Build 0)  -->
<svg version="1.1" id="Ebene_1" xmlns="http://www.w3.org/2000/svg" xmlns:xlink="http://www.w3.org/1999/xlink" x="0px" y="0px"
	 viewBox="0 0 141.7 141.7" enable-background="new 0 0 141.7 141.7" xml:space="preserve">
<circle fill="#EEEEEE" cx="70.9" cy="70.9" r="42.5"/>
<path fill="#03CC85" d="M113.4,70.9c0,23.5-19,42.5-42.5,42.5c-23.5,0-42.5-19-42.5-42.5h42.5V28.3C94.3,28.3,113.4,47.4,113.4,70.9
	z"/>
<circle fill="#FFFFFF" cx="70.9" cy="70.9" r="35.4"/>
<g>
	<path fill="#03CC85" d="M70,67.1c0,2.2-0.7,3.8-2,4.9c-1.3,1.1-3.3,1.7-5.7,1.7h-1.8v7.1h-4.2v-20h6.4c2.4,0,4.3,0.5,5.5,1.6
		C69.4,63.5,70,65,70,67.1z M60.4,70.3h1.4c1.3,0,2.3-0.3,2.9-0.8c0.6-0.5,1-1.3,1-2.2c0-1-0.3-1.7-0.8-2.2
		c-0.5-0.5-1.4-0.7-2.5-0.7h-1.9V70.3z"/>
	<path fill="#03CC85" d="M85.6,75.3c0,1.8-0.7,3.2-1.9,4.3s-3.1,1.6-5.4,1.6c-2.1,0-4-0.4-5.7-1.2V76c1.3,0.6,2.5,1,3.4,1.3
		c0.9,0.2,1.8,0.4,2.6,0.4c0.9,0,1.6-0.2,2.1-0.5c0.5-0.4,0.7-0.9,0.7-1.6c0-0.4-0.1-0.7-0.3-1s-0.5-0.6-1-0.9
		c-0.4-0.3-1.3-0.7-2.6-1.4c-1.2-0.6-2.1-1.1-2.7-1.7c-0.6-0.5-1.1-1.1-1.5-1.8c-0.4-0.7-0.5-1.5-0.5-2.5c0-1.8,0.6-3.2,1.8-4.2
		c1.2-1,2.9-1.5,5-1.5c1,0,2,0.1,3,0.4s1.9,0.6,3,1l-1.4,3.3c-1.1-0.4-1.9-0.7-2.6-0.9c-0.7-0.2-1.4-0.3-2.1-0.3
		c-0.8,0-1.4,0.2-1.8,0.6c-0.4,0.4-0.6,0.9-0.6,1.5c0,0.4,0.1,0.7,0.3,1c0.2,0.3,0.4,0.5,0.8,0.8c0.4,0.3,1.3,0.7,2.7,1.4
		c1.9,0.9,3.1,1.8,3.8,2.7C85.2,72.9,85.6,74,85.6,75.3z"/>
</g>
</svg>
