<?xml version="1.0" encoding="utf-8"?>
<!-- Generator: Adobe Illustrator 18.1.1, SVG Export Plug-In . SVG Version: 6.00 Build 0)  -->
<svg version="1.1" id="Ebene_1" xmlns="http://www.w3.org/2000/svg" xmlns:xlink="http://www.w3.org/1999/xlink" x="0px" y="0px"
	 viewBox="0 0 141.7 141.7" enable-background="new 0 0 141.7 141.7" xml:space="preserve">
<circle fill="#EEEEEE" cx="70.9" cy="70.9" r="42.5"/>
<path fill="#03CC85" d="M113.4,70.9c0,23.5-19,42.5-42.5,42.5c-8.9,0-17.2-2.7-24-7.4l46.2-46.2L70.9,37.6v-9.3
	C94.3,28.3,113.4,47.4,113.4,70.9z"/>
<circle fill="#FFFFFF" cx="70.9" cy="70.9" r="35.4"/>
<g>
	<path fill="#03CC85" d="M63.9,78.1l-13.6-6v-2l13.6-6.8v3.3L54.5,71l9.4,3.8V78.1z"/>
	<path fill="#03CC85" d="M76.5,60.9l-7.5,20h-3.8l7.5-20H76.5z"/>
	<path fill="#03CC85" d="M77.9,74.8l9.4-3.8l-9.4-4.3v-3.3l13.6,6.8v2l-13.6,6V74.8z"/>
</g>
</svg>
