<?xml version="1.0" encoding="utf-8"?>
<!-- Generator: Adobe Illustrator 18.1.1, SVG Export Plug-In . SVG Version: 6.00 Build 0)  -->
<svg version="1.1" id="Ebene_1" xmlns="http://www.w3.org/2000/svg" xmlns:xlink="http://www.w3.org/1999/xlink" x="0px" y="0px"
	 viewBox="185 -186.3 512 512" enable-background="new 185 -186.3 512 512" xml:space="preserve">
<path id="instagram-6-icon" fill="#03CC85" d="M599.5,38h-35.9c2.6,10.1,4.2,20.7,4.2,31.7c0,70-56.8,126.8-126.8,126.8
	S314.2,139.7,314.2,69.7c0-11,1.5-21.6,4.2-31.7h-35.9v174.3c0,8.7,7.1,15.8,15.9,15.8h285.2c8.8,0,15.9-7.1,15.9-15.8L599.5,38
	L599.5,38z M599.5-72.9c0-8.8-7.1-15.8-15.9-15.8h-47.5c-8.8,0-15.8,7.1-15.8,15.8v47.5c0,8.7,7.1,15.8,15.8,15.8h47.5
	c8.8,0,15.9-7.1,15.9-15.8V-72.9z M441-9.5c-43.8,0-79.2,35.5-79.2,79.2c0,43.8,35.5,79.2,79.2,79.2c43.8,0,79.2-35.5,79.2-79.2
	C520.2,26,484.8-9.5,441-9.5 M599.5,275.7H282.5c-26.2,0-47.5-21.3-47.5-47.6V-88.7c0-26.3,21.3-47.5,47.5-47.5h316.9
	c26.2,0,47.5,21.3,47.5,47.5v316.9C647,254.4,625.7,275.7,599.5,275.7"/>
</svg>
