<?xml version="1.0" encoding="utf-8"?>
<!-- Generator: Adobe Illustrator 18.1.1, SVG Export Plug-In . SVG Version: 6.00 Build 0)  -->
<svg version="1.1" id="Ebene_1" xmlns="http://www.w3.org/2000/svg" xmlns:xlink="http://www.w3.org/1999/xlink" x="0px" y="0px"
	 viewBox="185 -186.3 512 512" enable-background="new 185 -186.3 512 512" xml:space="preserve">
<path id="twitter-icon" fill="#03CC85" d="M647-58c-15.2,6.7-31.4,11.3-48.5,13.3c17.4-10.5,30.9-27,37.2-46.8
	c-16.3,9.7-34.4,16.7-53.7,20.5c-15.4-16.4-37.4-26.7-61.7-26.7c-54.6,0-94.7,50.9-82.3,103.8c-70.2-3.5-132.5-37.2-174.2-88.3
	c-22.1,38-11.5,87.7,26.2,112.8c-13.9-0.4-26.9-4.2-38.3-10.6c-0.9,39.2,27.1,75.8,67.8,83.9c-11.9,3.2-24.9,4-38.2,1.4
	c10.8,33.6,42,58,79,58.7c-35.5,27.8-80.3,40.3-125.1,35c37.4,24,81.8,38,129.6,38c156.9,0,245.6-132.6,240.3-251.4
	C621.3-26.2,635.7-41.1,647-58z"/>
</svg>
