<?xml version="1.0" encoding="utf-8"?>
<!-- Generator: Adobe Illustrator 18.1.1, SVG Export Plug-In . SVG Version: 6.00 Build 0)  -->
<svg version="1.1" id="Ebene_1" xmlns="http://www.w3.org/2000/svg" xmlns:xlink="http://www.w3.org/1999/xlink" x="0px" y="0px"
	 viewBox="185 -186.3 512 512" enable-background="new 185 -186.3 512 512" xml:space="preserve">
<circle fill="#343434" cx="441.2" cy="70.6" r="244.9"/>
<path id="certificate-12" fill="#03CC85" d="M473.1,97c-2.2,6.5-2.2,5.2,0,11.8c0.2,0.7,0.3,1.4,0.3,2.1c0,2.1-1,4.1-2.8,5.3
	c-5.8,4-5,3-7.2,9.5c-0.9,2.7-3.5,4.6-6.5,4.6c0,0,0,0,0,0c-7.1,0-5.9-0.4-11.7,3.6c-1.2,0.8-2.6,1.3-4,1.3c-1.4,0-2.8-0.4-4-1.3
	c-5.8-4-4.5-3.7-11.7-3.6c0,0,0,0,0,0c-3,0-5.6-1.8-6.5-4.6c-2.2-6.5-1.4-5.5-7.2-9.5c-1.8-1.3-2.8-3.3-2.8-5.3
	c0-0.7,0.1-1.4,0.3-2.1c2.2-6.5,2.2-5.2,0-11.8c-0.2-0.7-0.3-1.4-0.3-2.1c0-2.1,1-4.1,2.8-5.3c5.8-4,5-3,7.2-9.5
	c0.9-2.7,3.5-4.6,6.5-4.6c0,0,0,0,0,0c7.1,0,5.9,0.4,11.7-3.6c1.2-0.8,2.6-1.3,4-1.3c1.4,0,2.8,0.4,4,1.3c5.8,4,4.5,3.7,11.7,3.6
	c0,0,0,0,0,0c3,0,5.6,1.8,6.5,4.6c2.2,6.5,1.4,5.5,7.2,9.5c1.8,1.3,2.8,3.3,2.8,5.3C473.5,95.6,473.4,96.3,473.1,97z M457.3,102.8
	c0-8.9-7.2-16.1-16.1-16.1c-8.9,0-16.1,7.2-16.1,16.1c0,8.9,7.2,16.1,16.1,16.1C450.1,119,457.3,111.7,457.3,102.8z M429.1,139.4
	c-3.5,0-6.3-0.3-8.6-1c-1.4,14.1-6.3,24.7-16.1,35c3.9,0.5,9-0.4,13-2.6c1.5,2.9,3,6.6,3.5,10.4c9.3-10.6,15-23.3,17.2-37.2
	C433.8,143.1,432.5,141.7,429.1,139.4z M453.4,139.4c-3.4,2.3-4.8,3.8-9.1,4.6c2.2,13.9,7.9,26.6,17.2,37.2
	c0.5-3.8,2.1-7.4,3.5-10.4c4.1,2.1,9.1,3.1,13,2.6c-9.8-10.2-14.6-20.9-16-35C459.7,139,456.9,139.4,453.4,139.4z M349.1-40v193.5
	h47.5c3.1-4.9,4.9-10.2,5.5-17l0.1-1.5h-34.7V-21.5h147.4v156.6h-34.7l0.1,1.4c0.7,6.8,2.4,12.1,5.5,17h47.5V-40H349.1z M496.5,6.1
	H385.9v9.2h110.6V6.1z M496.5,24.5H385.9v9.2h110.6V24.5z M496.5,43H385.9v9.2h110.6V43z"/>
</svg>
